[Header]
FileType HTR
DataType HTRS
FileVersion 1
NumSegments 22
NumFrames 5
DataFrameRate 24
EulerRotationOrder ZYX
CalibrationUnits mm
RotationUnits Degrees
GlobalAxisofGravity Y
BoneLengthAxis Y
ScaleFactor 1.0
[SegmentNames&Hierarchy]
reference	GLOBAL
Hips	reference
Spine	Hips
Spine1	Spine
Neck	Spine1
Head	Neck
LeftShoulder	Spine1
LeftArm	LeftShoulder
LeftForeArm	LeftArm
LeftHand	LeftForeArm
RightShoulder	Spine1
RightArm	RightShoulder
RightForeArm	RightArm
RightHand	RightForeArm
LeftUpLeg	Hips
LeftLeg	LeftUpLeg
LeftFoot	LeftLeg
LeftToeBase	LeftFoot
RightUpLeg	Hips
RightLeg	RightUpLeg
RightFoot	RightLeg
RightToeBase	RightFoot
[BasePosition]
reference	0	0	0	0	0	0	1
Hips	0	0	0	0	0	0	1
Spine	0	0	0	0	-0	90	1
Spine1	0	0	0	0	0	0	1
Neck	0	0	0	-7.352327771	-7.352327771	90	1
Head	0	0	0	0	-0	90	1
LeftShoulder	0	0	0	0	0	0	1
LeftArm	0	0	0	0	0	0	1
LeftForeArm	0	0	0	0	0	0	1
LeftHand	0	0	0	0	0	0	1
RightShoulder	0	0	0	0	-0	180	1
RightArm	0	0	0	0	-0	180	1
RightForeArm	0	0	0	0	-0	180	1
RightHand	0	0	0	0	-0	180	1
LeftUpLeg	0	0	0	0	-0	-90	1
LeftLeg	0	0	0	0	-0	-90	1
LeftFoot	0	0	0	66.57146043	-66.57146043	-90	1
LeftToeBase	0	0	0	0	-90	0	1
RightUpLeg	0	0	0	0	-0	-90	1
RightLeg	0	0	0	0	-0	-90	1
RightFoot	0	0	0	66.57146043	-66.57146043	-90	1
RightToeBase	0	0	0	0	-90	0	1
[reference]
20	0	0	0	0	-0	0	1.0
21	0	0	0	0	-0	0	1.0
22	0	0	0	0	-0	0	1.0
23	0	0	0	0	-0	0	1.0
24	0	0	0	0	-0	0	1.0
[Hips]
20	6.653230667	8.493080139	0.3795978725	-9.862475395	-109.9076385	11.11031723	1.0
21	6.572415829	8.488992691	0.3722564578	-8.126601219	-109.879715	9.742339134	1.0
22	6.482461929	8.484980583	0.3654439449	-7.005285263	-110.133255	9.5744133	1.0
23	6.383068085	8.481001854	0.3590295911	-8.602227211	-110.3299866	11.68477345	1.0
24	6.265060425	8.477012634	0.3528827727	-10.4516983	-109.9887238	13.72458935	1.0
[Spine]
20	0	0.7457100153	0	-6.801228523	2.614593506	-87.78699493	1.0
21	0	0.7457100153	0	-6.641895294	2.889966965	-88.52072906	1.0
22	0	0.7457100153	0	-7.020509243	3.533601761	-88.51626587	1.0
23	0	0.7457100153	0	-6.857338905	4.629975319	-87.81004333	1.0
24	0	0.7457100153	0	-6.610798359	5.689875126	-87.57447052	1.0
[Spine1]
20	0	2.140589952	0	11.44689369	0.5772019625	2.547194481	1.0
21	0	2.140589952	0	10.41961479	0.7077469826	2.48944068	1.0
22	0	2.140589952	0	9.940246582	0.965990901	2.149407387	1.0
23	0	2.140589952	0	9.660346985	1.359450579	1.720907211	1.0
24	0	2.140589952	0	9.79153347	1.668177128	2.13658762	1.0
[Neck]
20	0	2.32246995	0	-16.17028809	9.632292747	-92.80786133	1.0
21	0	2.32246995	0	-15.86456776	9.307977676	-92.8009491	1.0
22	0	2.32246995	0	-16.61587143	9.252418518	-92.85212708	1.0
23	0	2.32246995	0	-17.43752861	8.9945364	-92.72050476	1.0
24	0	2.32246995	0	-18.53530693	8.708427429	-93.0734024	1.0
[Head]
20	0	1.409579992	0.1818799973	-4.612689495	2.706001759	-91.24747467	1.0
21	0	1.409579992	0.1818799973	-4.136472225	2.36685276	-91.24442291	1.0
22	0	1.409579992	0.1818799973	-3.584136009	2.297147751	-90.77160645	1.0
23	0	1.409579992	0.1818799973	-3.571118832	2.023543596	-90.61483002	1.0
24	0	1.409579992	0.1818799973	-3.534509659	1.784178376	-90.54164886	1.0
[LeftShoulder]
20	0.3668199778	1.946700096	-0.02662999928	-16.522089	-12.2937727	-5.446964741	1.0
21	0.3668199778	1.946700096	-0.02662999928	-15.10477448	-12.27425671	-5.668338299	1.0
22	0.3668199778	1.946700096	-0.02662999928	-14.90655327	-12.06145287	-5.104998589	1.0
23	0.3668199778	1.946700096	-0.02662999928	-16.28218842	-11.58259296	-3.695683718	1.0
24	0.3668199778	1.946700096	-0.02662999928	-15.6369648	-11.63428783	-4.362481594	1.0
[LeftArm]
20	1.140689969	0	0	43.51998138	16.65020943	-75.6552124	1.0
21	1.140689969	0	0	42.00125885	16.45988083	-74.98609161	1.0
22	1.140689969	0	0	41.13528442	17.09214401	-74.86804199	1.0
23	1.140689969	0	0	39.7274971	18.73987389	-75.05563354	1.0
24	1.140689969	0	0	38.18061066	18.70581627	-73.58493805	1.0
[LeftForeArm]
20	2.749800205	0	0	-19.26324272	-12.91898346	3.644191504	1.0
21	2.749800205	0	0	-18.80407715	-12.54682064	3.048141718	1.0
22	2.749800205	0	0	-18.55912781	-12.53465652	3.10651207	1.0
23	2.749800205	0	0	-18.00929451	-12.82095432	2.89063859	1.0
24	2.749800205	0	0	-17.60863876	-13.24226856	2.917410135	1.0
[LeftHand]
20	2.295179844	0	0	-18.85045624	-3.88240099	0.001675771549	1.0
21	2.295179844	0	0	-18.42558098	-3.648758173	-1.36091423	1.0
22	2.295179844	0	0	-18.16017532	-3.43944025	-1.923802257	1.0
23	2.295179844	0	0	-17.61493683	-3.836436987	-2.07434845	1.0
24	2.295179844	0	0	-17.242836	-4.204935551	-0.7381960154	1.0
[RightShoulder]
20	-0.3601199985	1.946700096	-0.02662999928	-5.648382187	5.51616621	177.6127319	1.0
21	-0.3601199985	1.946700096	-0.02662999928	-5.3088274	5.722855568	177.7711334	1.0
22	-0.3601199985	1.946700096	-0.02662999928	-5.293926239	6.090098381	177.420166	1.0
23	-0.3601199985	1.946700096	-0.02662999928	-5.365083218	6.336742878	177.2158203	1.0
24	-0.3601199985	1.946700096	-0.02662999928	-5.702122688	6.346278667	177.0060425	1.0
[RightArm]
20	-1.140689969	0	0	54.69358826	-0.007946837693	-98.46700287	1.0
21	-1.140689969	0	0	53.72649384	-0.415302515	-98.9593811	1.0
22	-1.140689969	0	0	52.81239319	-0.1764450073	-99.74427032	1.0
23	-1.140689969	0	0	52.89361191	0.7598237991	-100.816864	1.0
24	-1.140689969	0	0	53.09977722	2.267505884	-102.1181946	1.0
[RightForeArm]
20	-2.749800205	0	0	-3.03764987	10.81416512	178.0990295	1.0
21	-2.749800205	0	0	-2.852954388	11.64540005	178.3739777	1.0
22	-2.749800205	0	0	-2.098152876	12.95683861	178.8381653	1.0
23	-2.749800205	0	0	-0.6713457108	14.10523129	179.0162048	1.0
24	-2.749800205	0	0	-0.1172044277	14.61330414	178.9251404	1.0
[RightHand]
20	-2.295179844	0	0	-3.162991285	6.592486382	174.7107697	1.0
21	-2.295179844	0	0	-2.925796747	7.220848083	176.2216644	1.0
22	-2.295179844	0	0	-2.105444193	7.840193748	177.9727173	1.0
23	-2.295179844	0	0	-0.726428628	8.235901833	177.5541687	1.0
24	-2.295179844	0	0	-0.2817228734	8.369699478	175.8781433	1.0
[LeftUpLeg]
20	0.9094099998	0	0	-20.57857323	2.430065155	97.44503021	1.0
21	0.9094099998	0	0	-18.84677124	-0.4199217856	98.02897644	1.0
22	0.9094099998	0	0	-17.53195572	-2.181577921	98.26889801	1.0
23	0.9094099998	0	0	-16.65973282	-1.412022829	98.3786087	1.0
24	0.9094099998	0	0	-16.66122627	0.6280927658	97.77277374	1.0
[LeftLeg]
20	0	-4.498080254	0	38.01602173	-1.192440033	81.43825531	1.0
21	0	-4.498080254	0	25.97634888	-0.1784000248	81.87914276	1.0
22	0	-4.498080254	0	14.91830635	-0.004785698839	83.74890137	1.0
23	0	-4.498080254	0	7.819561958	0.4540317655	85.44278717	1.0
24	0	-4.498080254	0	5.403523445	2.011448145	86.26400757	1.0
[LeftFoot]
20	0	-3.729400158	0	-58.91427612	110.4698563	-4.71465826	1.0
21	0	-3.729400158	0	-62.13574219	112.1079941	-9.426589966	1.0
22	0	-3.729400158	0	-66.28430939	113.4972839	-16.97322083	1.0
23	0	-3.729400158	0	-70.7192688	113.940567	-22.19330025	1.0
24	0	-3.729400158	0	-72.38014984	113.9750137	-23.31427383	1.0
[LeftToeBase]
20	0	-0.5911099911	1.364109993	0	0	0	1.0
21	0	-0.5911099911	1.364109993	0	0	0	1.0
22	0	-0.5911099911	1.364109993	0	0	0	1.0
23	0	-0.5911099911	1.364109993	0	0	0	1.0
24	0	-0.5911099911	1.364109993	0	0	0	1.0
[RightUpLeg]
20	-0.9094099998	0	0	4.779760838	-4.826871395	96.60533905	1.0
21	-0.9094099998	0	0	4.963995457	-5.436022282	96.16909027	1.0
22	-0.9094099998	0	0	4.753332138	-5.608955383	95.9249115	1.0
23	-0.9094099998	0	0	5.048134804	-6.110348225	96.46086121	1.0
24	-0.9094099998	0	0	5.694247246	-7.220256805	96.75660706	1.0
[RightLeg]
20	0	-4.498080254	0	5.906974316	-2.429541349	91.37683105	1.0
21	0	-4.498080254	0	5.759689808	-2.23136735	91.05835724	1.0
22	0	-4.498080254	0	5.496814251	-2.485823154	91.16300201	1.0
23	0	-4.498080254	0	5.499996185	-2.548102379	91.09095001	1.0
24	0	-4.498080254	0	5.715484619	-3.086304665	90.8420639	1.0
[RightFoot]
20	0	-3.729400158	0	37.65863037	66.87560272	84.14910889	1.0
21	0	-3.729400158	0	38.73831177	66.54150391	85.07901764	1.0
22	0	-3.729400158	0	39.30420685	66.47639465	86.02963257	1.0
23	0	-3.729400158	0	39.7567215	66.30973816	87.30822754	1.0
24	0	-3.729400158	0	41.92882156	66.41516876	90.93788147	1.0
[RightToeBase]
20	0	-0.5911099911	1.364109993	0	0	0	1.0
21	0	-0.5911099911	1.364109993	0	0	0	1.0
22	0	-0.5911099911	1.364109993	0	0	0	1.0
23	0	-0.5911099911	1.364109993	0	0	0	1.0
24	0	-0.5911099911	1.364109993	0	0	0	1.0
[EndOfFile]
